# xmcd
# 
# Track frame offsets:
#     150
#     18890
#     34820
#     58925
#     80152
#     99097
#     117455
#     134827
#     158470
#     178865
#     201670
#     222570
# 
# Disc length: 3196
# 
# Revision: 2
# Processed by: cddbd v1.5.2PL0 Copyright (c) Steve Scherf et al.
# Submitted via: fre:ac v1.0.31
# 
DISCID=b30c7a0c
DTITLE=Koko Taylor - Royal Blue
DYEAR=2000
DGENRE=Blues
TTITLE0=Save Your Breath
TTITLE1=Hittin' On Me
TTITLE2=Bring Me Some Water
TTITLE3=But on the Other Hand
TTITLE4=Don't Let Me Catch You With Your Drawers Down
TTITLE5=Blues Hotel
TTITLE6=Fuel to Burn
TTITLE7=The Man Next Door
TTITLE8=Old Woman
TTITLE9=Ernestine
TTITLE10=Keep Your Booty Out of My Bed
TTITLE11=Keep Your Mouth Shut and Your Eyes Open
EXTD=YEAR: 2000 ID3G:   0
EXTT0=
EXTT1=
EXTT2=
EXTT3=
EXTT4=
EXTT5=
EXTT6=
EXTT7=
EXTT8=
EXTT9=
EXTT10=
EXTT11=
PLAYORDER=
